<svg xmlns="http://www.w3.org/2000/svg" viewBox="2 0 28 30" fill="none">
  <path d="M12 6.5625C12 4.49414 13.7938 2.8125 16 2.8125C18.2062 2.8125 20 4.49414 20 6.5625V9.375H12V6.5625ZM9 9.375H5C3.34375 9.375 2 10.6348 2 12.1875V24.375C2 27.4805 4.6875 30 8 30H24C27.3125 30 30 27.4805 30 24.375V12.1875C30 10.6348 28.6562 9.375 27 9.375H23V6.5625C23 2.93555 19.8688 0 16 0C12.1312 0 9 2.93555 9 6.5625V9.375ZM10.5 12.1875C10.8978 12.1875 11.2794 12.3357 11.5607 12.5994C11.842 12.8631 12 13.2208 12 13.5938C12 13.9667 11.842 14.3244 11.5607 14.5881C11.2794 14.8518 10.8978 15 10.5 15C10.1022 15 9.72064 14.8518 9.43934 14.5881C9.15804 14.3244 9 13.9667 9 13.5938C9 13.2208 9.15804 12.8631 9.43934 12.5994C9.72064 12.3357 10.1022 12.1875 10.5 12.1875ZM20 13.5938C20 13.2208 20.158 12.8631 20.4393 12.5994C20.7206 12.3357 21.1022 12.1875 21.5 12.1875C21.8978 12.1875 22.2794 12.3357 22.5607 12.5994C22.842 12.8631 23 13.2208 23 13.5938C23 13.9667 22.842 14.3244 22.5607 14.5881C22.2794 14.8518 21.8978 15 21.5 15C21.1022 15 20.7206 14.8518 20.4393 14.5881C20.158 14.3244 20 13.9667 20 13.5938Z" fill="currentColor"/>
</svg>