<svg xmlns="http://www.w3.org/2000/svg" viewBox="59 55 28 29" fill="none">
  <path d="M87 67.5001V68.5001C87 69.3285 86.4777 70.0001 85.8333 70.0001H85.4444L84.1751 81.4243C84.0109 82.9022 83.0264 84 81.8652 84H64.1348C62.9736 84 61.9891 82.9022 61.8249 81.4243L60.5556 70.0001H60.1667C59.5223 70.0001 59 69.3285 59 68.5001V67.5001C59 66.6717 59.5223 66.0001 60.1667 66.0001H63.4402L68.6309 56.8239C69.1362 55.9306 70.109 55.7331 70.8038 56.3827C71.4986 57.0324 71.6523 58.2832 71.1469 59.1765L67.2871 66.0001H78.7129L74.8531 59.1765C74.3477 58.2832 74.5014 57.0324 75.1962 56.3827C75.8909 55.733 76.8639 55.9305 77.3692 56.8238L82.5598 66.0001H85.8333C86.4777 66.0001 87 66.6717 87 67.5001ZM74.1667 78.5V71.5001C74.1667 70.6716 73.6443 70.0001 73 70.0001C72.3557 70.0001 71.8333 70.6716 71.8333 71.5001V78.5C71.8333 79.3285 72.3557 80 73 80C73.6443 80 74.1667 79.3285 74.1667 78.5ZM79.6111 78.5V71.5001C79.6111 70.6716 79.0888 70.0001 78.4444 70.0001C77.8001 70.0001 77.2778 70.6716 77.2778 71.5001V78.5C77.2778 79.3285 77.8001 80 78.4444 80C79.0888 80 79.6111 79.3285 79.6111 78.5ZM68.7222 78.5V71.5001C68.7222 70.6716 68.1999 70.0001 67.5556 70.0001C66.9112 70.0001 66.3889 70.6716 66.3889 71.5001V78.5C66.3889 79.3285 66.9112 80 67.5556 80C68.1999 80 68.7222 79.3285 68.7222 78.5Z" fill="currentColor"/>
</svg>