<svg xmlns="http://www.w3.org/2000/svg" viewBox="5 227 28 28" fill="none">
  <path d="M15.4209 255C14.5084 255 13.644 254.594 13.0902 253.894L5.59435 244.451C5.36206 244.16 5.19242 243.827 5.09515 243.473C4.99788 243.119 4.9749 242.75 5.02753 242.388C5.08016 242.025 5.20736 241.676 5.40183 241.36C5.5963 241.045 5.85422 240.769 6.16078 240.549C6.46657 240.327 6.81539 240.164 7.18719 240.071C7.55898 239.978 7.94641 239.956 8.32719 240.006C8.70797 240.056 9.07459 240.178 9.40595 240.364C9.73731 240.549 10.0269 240.796 10.258 241.089L15.1902 247.297L27.5909 228.312C28.0022 227.685 28.6574 227.239 29.4129 227.072C30.1684 226.905 30.9625 227.031 31.621 227.421C32.9909 228.234 33.4126 229.954 32.5567 231.262L17.9049 253.684C17.6548 254.068 17.31 254.389 16.9005 254.617C16.4911 254.846 16.0293 254.976 15.5552 254.996L15.4209 255Z" fill="currentColor"/>
</svg>