<svg xmlns="http://www.w3.org/2000/svg" viewBox="0 169 28 29" fill="none">
  <path d="M0.630934 182.353C-0.210311 183.264 -0.210311 184.743 0.630934 185.655L11.3989 197.317C12.2401 198.228 13.6063 198.228 14.4475 197.317C15.2888 196.406 15.2888 194.926 14.4475 194.015L5.20058 184L14.4408 173.985C15.2821 173.074 15.2821 171.594 14.4408 170.683C13.5996 169.772 12.2334 169.772 11.3921 170.683L0.624204 182.345L0.630934 182.353ZM24.3204 170.691L13.5525 182.353C12.7112 183.264 12.7112 184.743 13.5525 185.655L24.3204 197.317C25.1616 198.228 26.5278 198.228 27.3691 197.317C28.2103 196.406 28.2103 194.926 27.3691 194.015L18.1221 184L27.3623 173.985C28.2036 173.074 28.2036 171.594 27.3623 170.683C26.5211 169.772 25.1549 169.772 24.3137 170.683L24.3204 170.691Z" fill="currentColor"/>
</svg>