<svg xmlns="http://www.w3.org/2000/svg" viewBox="64 169 28 29" fill="none">
  <path d="M91.3691 182.353C92.2103 183.264 92.2103 184.743 91.3691 185.655L80.6011 197.317C79.7599 198.228 78.3937 198.228 77.5525 197.317C76.7112 196.406 76.7112 194.926 77.5525 194.015L86.7994 184L77.5592 173.985C76.7179 173.074 76.7179 171.594 77.5592 170.683C78.4004 169.772 79.7666 169.772 80.6079 170.683L91.3758 182.345L91.3691 182.353ZM67.6796 170.691L78.4475 182.353C79.2888 183.264 79.2888 184.743 78.4475 185.655L67.6796 197.317C66.8384 198.228 65.4722 198.228 64.6309 197.317C63.7897 196.406 63.7897 194.926 64.6309 194.015L73.8779 184L64.6377 173.985C63.7964 173.074 63.7964 171.594 64.6377 170.683C65.4789 169.772 66.8451 169.772 67.6863 170.683L67.6796 170.691Z" fill="currentColor"/>
</svg>