<svg xmlns="http://www.w3.org/2000/svg" viewBox="111 227 25 28" fill="none">
  <path d="M118.545 227.968C118.846 227.372 119.465 227 120.141 227H126.859C127.535 227 128.154 227.372 128.455 227.968L128.857 228.75H134.214C135.202 228.75 136 229.532 136 230.5C136 231.468 135.202 232.25 134.214 232.25H112.786C111.798 232.25 111 231.468 111 230.5C111 229.532 111.798 228.75 112.786 228.75H118.143L118.545 227.968ZM112.786 234H134.214V251.5C134.214 253.43 132.613 255 130.643 255H116.357C114.387 255 112.786 253.43 112.786 251.5V234ZM118.143 237.5C117.652 237.5 117.25 237.894 117.25 238.375V250.625C117.25 251.106 117.652 251.5 118.143 251.5C118.634 251.5 119.036 251.106 119.036 250.625V238.375C119.036 237.894 118.634 237.5 118.143 237.5ZM123.5 237.5C123.009 237.5 122.607 237.894 122.607 238.375V250.625C122.607 251.106 123.009 251.5 123.5 251.5C123.991 251.5 124.393 251.106 124.393 250.625V238.375C124.393 237.894 123.991 237.5 123.5 237.5ZM128.857 237.5C128.366 237.5 127.964 237.894 127.964 238.375V250.625C127.964 251.106 128.366 251.5 128.857 251.5C129.348 251.5 129.75 251.106 129.75 250.625V238.375C129.75 237.894 129.348 237.5 128.857 237.5Z" fill="currentColor"/>
</svg>