<svg xmlns="http://www.w3.org/2000/svg" viewBox="62 227 25 28" fill="none">
  <path d="M75.7612 227.513C75.0636 226.829 73.9308 226.829 73.2333 227.513L66.0904 234.513C65.3929 235.197 65.3929 236.307 66.0904 236.991C66.7879 237.674 67.9208 237.674 68.6183 236.991L72.7143 232.976V244.499C72.7143 245.468 73.5123 246.25 74.5 246.25C75.4877 246.25 76.2857 245.468 76.2857 244.499V232.976L80.3817 236.991C81.0792 237.674 82.2121 237.674 82.9096 236.991C83.6071 236.307 83.6071 235.197 82.9096 234.513L75.7667 227.513H75.7612ZM65.5714 246.25C65.5714 245.282 64.7734 244.499 63.7857 244.499C62.798 244.499 62 245.282 62 246.25V249.75C62 252.648 64.3996 255 67.3571 255H81.6429C84.6004 255 87 252.648 87 249.75V246.25C87 245.282 86.202 244.499 85.2143 244.499C84.2266 244.499 83.4286 245.282 83.4286 246.25V249.75C83.4286 250.718 82.6306 251.5 81.6429 251.5H67.3571C66.3694 251.5 65.5714 250.718 65.5714 249.75V246.25Z" fill="currentColor"/>
</svg>