<svg xmlns="http://www.w3.org/2000/svg" viewBox="59 2 28 28" fill="none">
  <path d="M73 2C76.713 2 80.274 3.475 82.8995 6.10051C85.525 8.72601 87 12.287 87 16C87 19.713 85.525 23.274 82.8995 25.8995C80.274 28.525 76.713 30 73 30C69.287 30 65.726 28.525 63.1005 25.8995C60.475 23.274 59 19.713 59 16C59 12.287 60.475 8.72601 63.1005 6.10051C65.726 3.475 69.287 2 73 2ZM71.6875 8.5625V16C71.6875 16.4375 71.9063 16.8477 72.2727 17.0938L77.5227 20.5938C78.1242 20.9984 78.9391 20.8344 79.3438 20.2273C79.7484 19.6203 79.5844 18.8109 78.9773 18.4062L74.3125 15.3V8.5625C74.3125 7.83516 73.7273 7.25 73 7.25C72.2727 7.25 71.6875 7.83516 71.6875 8.5625Z" fill="currentColor"/>
</svg>