<svg width="35" height="35" viewBox="0 0 35 35" fill="none" xmlns="http://www.w3.org/2000/svg">
<path d="M1.69355 0C0.75504 0 0 0.90024 0 2.01923V6.05769C0 7.17668 0.75504 8.07692 1.69355 8.07692H5.08065C6.01915 8.07692 6.77419 7.17668 6.77419 6.05769V2.01923C6.77419 0.90024 6.01915 0 5.08065 0H1.69355ZM12.4194 1.34615C11.1704 1.34615 10.1613 2.54928 10.1613 4.03846C10.1613 5.52764 11.1704 6.73077 12.4194 6.73077H32.7419C33.9909 6.73077 35 5.52764 35 4.03846C35 2.54928 33.9909 1.34615 32.7419 1.34615H12.4194ZM12.4194 14.8077C11.1704 14.8077 10.1613 16.0108 10.1613 17.5C10.1613 18.9892 11.1704 20.1923 12.4194 20.1923H32.7419C33.9909 20.1923 35 18.9892 35 17.5C35 16.0108 33.9909 14.8077 32.7419 14.8077H12.4194ZM12.4194 28.2692C11.1704 28.2692 10.1613 29.4724 10.1613 30.9615C10.1613 32.4507 11.1704 33.6539 12.4194 33.6539H32.7419C33.9909 33.6539 35 32.4507 35 30.9615C35 29.4724 33.9909 28.2692 32.7419 28.2692H12.4194ZM0 15.4808V19.5192C0 20.6382 0.75504 21.5385 1.69355 21.5385H5.08065C6.01915 21.5385 6.77419 20.6382 6.77419 19.5192V15.4808C6.77419 14.3618 6.01915 13.4615 5.08065 13.4615H1.69355C0.75504 13.4615 0 14.3618 0 15.4808ZM1.69355 26.9231C0.75504 26.9231 0 27.8233 0 28.9423V32.9808C0 34.0998 0.75504 35 1.69355 35H5.08065C6.01915 35 6.77419 34.0998 6.77419 32.9808V28.9423C6.77419 27.8233 6.01915 26.9231 5.08065 26.9231H1.69355Z" fill="white"/>
</svg>
