<svg fill="none" viewBox="0 0 44.7508 40.4888" xmlns="http://www.w3.org/2000/svg">
  <g clip-path="url(#clip0_1_18)">
    <path d="M6.12299 30.6073C7.76403 31.752 10.4247 31.752 12.0658 30.6073C13.7067 29.4626 13.7067 27.6068 12.0658 26.4621C10.4247 25.3174 7.76403 25.3174 6.12299 26.4621C4.48194 27.6068 4.48194 29.4626 6.12299 30.6073Z" fill="#A53DFF"/>
    <path d="M23.1556 15.063C25.6172 16.7799 29.6081 16.7799 32.0697 15.063C34.5312 13.346 34.5312 10.5622 32.0697 8.84526C29.6081 7.12828 25.6172 7.12828 23.1556 8.84526C20.694 10.5622 20.694 13.346 23.1556 15.063Z" fill="#A53DFF"/>
    <path d="M14.114 22.8352C16.1653 24.2659 19.4911 24.2659 21.5424 22.8352C23.5937 21.4043 23.5937 19.0845 21.5424 17.6537C19.4911 16.2229 16.1653 16.2229 14.114 17.6537C12.0627 19.0845 12.0627 21.4043 14.114 22.8352Z" fill="#A53DFF"/>
    <path d="M0.923086 21.7989C2.15387 22.6573 4.14936 22.6573 5.38014 21.7989C6.61092 20.9404 6.61092 19.5485 5.38014 18.69C4.14936 17.8315 2.15387 17.8315 0.923086 18.69C-0.307696 19.5485 -0.307695 20.9404 0.923086 21.7989Z" fill="#A53DFF"/>
    <path d="M14.114 6.25454C16.1653 7.68535 19.4911 7.68535 21.5424 6.25454C23.5937 4.82373 23.5937 2.50392 21.5424 1.07311C19.4911 -0.357703 16.1653 -0.357704 14.114 1.07311C12.0627 2.50392 12.0627 4.82373 14.114 6.25454Z" fill="#A53DFF"/>
    <path d="M6.12298 14.0267C7.76403 15.1714 10.4247 15.1714 12.0658 14.0267C13.7067 12.882 13.7067 11.0262 12.0658 9.88156C10.4247 8.73691 7.76403 8.73691 6.12298 9.88156C4.48194 11.0262 4.48195 12.882 6.12298 14.0267Z" fill="#A53DFF"/>
    <path d="M14.114 39.4158C16.1653 40.8465 19.4911 40.8465 21.5424 39.4158C23.5937 37.9849 23.5937 35.6651 21.5424 34.2343C19.4911 32.8035 16.1653 32.8035 14.114 34.2343C12.0627 35.6651 12.0627 37.9849 14.114 39.4158Z" fill="#A53DFF"/>
    <path d="M33.9905 23.3533C36.4521 25.0702 40.4431 25.0702 42.9046 23.3533C45.3662 21.6364 45.3662 18.8525 42.9046 17.1356C40.4431 15.4186 36.4521 15.4186 33.9905 17.1356C31.529 18.8525 31.529 21.6364 33.9905 23.3533Z" fill="#A53DFF"/>
    <path d="M23.1556 31.6435C25.6172 33.3605 29.6081 33.3605 32.0697 31.6435C34.5312 29.9266 34.5312 27.1428 32.0697 25.4258C29.6081 23.7089 25.6172 23.7089 23.1556 25.4258C20.694 27.1428 20.694 29.9266 23.1556 31.6435Z" fill="#A53DFF"/>
  </g>
  <defs>
    <clipPath id="clip0_1_18">
      <rect fill="white" height="40.4888" width="44.7508"/>
    </clipPath>
  </defs>
</svg>