<svg xmlns="http://www.w3.org/2000/svg" viewBox="105 2 28 25.34" fill="none">
  <path d="M127.636 4.67492L128.429 9.45511L132.987 11.6718L130.688 16.0062L133 20.3406L128.403 22.5573L127.61 27.3375L122.558 26.582L118.961 30L115.351 26.5325L110.338 27.3251L109.532 22.5077L105 20.3034L107.312 15.969L105.013 11.6718L109.571 9.43034L110.364 4.68731L115.39 5.47988L119 2L122.597 5.43034L127.636 4.67492ZM115.753 9.81424C115.237 9.81424 114.741 10.01 114.376 10.3583C114.01 10.7067 113.805 11.1792 113.805 11.6718C113.805 12.1645 114.01 12.637 114.376 12.9853C114.741 13.3337 115.237 13.5294 115.753 13.5294C116.27 13.5294 116.765 13.3337 117.131 12.9853C117.496 12.637 117.701 12.1645 117.701 11.6718C117.701 11.1792 117.496 10.7067 117.131 10.3583C116.765 10.01 116.27 9.81424 115.753 9.81424ZM122.247 18.483C121.73 18.483 121.235 18.6787 120.869 19.027C120.504 19.3754 120.299 19.8479 120.299 20.3406C120.299 20.8332 120.504 21.3057 120.869 21.6541C121.235 22.0024 121.73 22.1981 122.247 22.1981C122.763 22.1981 123.259 22.0024 123.624 21.6541C123.99 21.3057 124.195 20.8332 124.195 20.3406C124.195 19.8479 123.99 19.3754 123.624 19.027C123.259 18.6787 122.763 18.483 122.247 18.483ZM114.338 22.1981L125.494 11.5604L123.662 9.81424L112.506 20.452L114.338 22.1981Z" fill="currentColor"/>
</svg>