<svg width="40" height="30" viewBox="0 0 40 30" fill="none" xmlns="http://www.w3.org/2000/svg">
<path d="M6 7.5C6 5.51088 6.84285 3.60322 8.34315 2.1967C9.84344 0.790176 11.8783 0 14 0C16.1217 0 18.1566 0.790176 19.6569 2.1967C21.1571 3.60322 22 5.51088 22 7.5C22 9.48912 21.1571 11.3968 19.6569 12.8033C18.1566 14.2098 16.1217 15 14 15C11.8783 15 9.84344 14.2098 8.34315 12.8033C6.84285 11.3968 6 9.48912 6 7.5ZM0 28.2598C0 22.4883 4.9875 17.8125 11.1437 17.8125H16.8562C23.0125 17.8125 28 22.4883 28 28.2598C28 29.2207 27.1687 30 26.1437 30H1.85625C0.83125 30 0 29.2207 0 28.2598ZM31.5 18.2812V14.5312H27.5C26.6687 14.5312 26 13.9043 26 13.125C26 12.3457 26.6687 11.7188 27.5 11.7188H31.5V7.96875C31.5 7.18945 32.1688 6.5625 33 6.5625C33.8312 6.5625 34.5 7.18945 34.5 7.96875V11.7188H38.5C39.3312 11.7188 40 12.3457 40 13.125C40 13.9043 39.3312 14.5312 38.5 14.5312H34.5V18.2812C34.5 19.0605 33.8312 19.6875 33 19.6875C32.1688 19.6875 31.5 19.0605 31.5 18.2812Z" fill="white"/>
</svg>
