<svg xmlns="http://www.w3.org/2000/svg" viewBox="107 116 28 18" fill="none">
  <path d="M134.362 117.221C134.554 116.517 134.362 116 133.437 116H130.375C129.595 116 129.237 116.444 129.044 116.939C129.044 116.939 127.485 121.051 125.281 123.717C124.569 124.488 124.242 124.736 123.852 124.736C123.659 124.736 123.363 124.488 123.363 123.785V117.221C123.363 116.377 123.145 116 122.5 116H117.687C117.198 116 116.907 116.394 116.907 116.759C116.907 117.558 118.009 117.744 118.124 119.994V124.876C118.124 125.945 117.947 126.142 117.557 126.142C116.517 126.142 113.991 122.013 112.494 117.288C112.193 116.371 111.896 116 111.112 116H108.05C107.177 116 107 116.444 107 116.939C107 117.817 108.04 122.176 111.839 127.936C114.371 131.868 117.936 134 121.18 134C123.129 134 123.368 133.527 123.368 132.712C123.368 128.954 123.192 128.6 124.169 128.6C124.621 128.6 125.401 128.848 127.22 130.743C129.299 132.993 129.642 134 130.806 134H133.868C134.741 134 135.183 133.528 134.928 132.594C134.346 130.631 130.411 126.592 130.235 126.322C129.782 125.692 129.912 125.411 130.235 124.848C130.24 124.843 133.977 119.15 134.362 117.221Z" fill="currentColor"/>
</svg>